<?xml version="1.0" encoding="UTF-8" standalone="no"?> <svg xmlns="http://www.w3.org/2000/svg" viewBox="0 0 48 48"><defs><style>.cls-1{fill:#eaeff0;}.cls-2{fill:#d9e1e2;}.cls-3{fill:#009ae0;}.cls-4{fill:#0081bd;}.cls-5{fill:#8fa5a5;}.cls-6{fill:#7b8c8c;}.cls-7{fill:#2d4a60;}</style></defs><title>Schedule</title><g id="_31_-_40" data-name="31 - 40"><g id="Schedule"><rect class="cls-1" x="5" y="6" width="38" height="37" rx="5"/><path class="cls-2" d="M6.488,7.448A4.984,4.984,0,0,0,5,11V38a5.006,5.006,0,0,0,5,5H38a4.983,4.983,0,0,0,3.512-1.448Z"/><path class="cls-3" d="M38,6H10a5.006,5.006,0,0,0-5,5v5H43V11A5.006,5.006,0,0,0,38,6Z"/><path class="cls-4" d="M6.488,7.448A4.984,4.984,0,0,0,5,11v5H15.27Z"/><rect class="cls-5" x="31.5" y="20.5" width="6" height="6" rx="1.2"/><rect class="cls-5" x="21" y="20.5" width="6" height="6" rx="1.2"/><path class="cls-6" d="M21.02,21.6c0,.035-.02.065-.02.1v3.6a1.2,1.2,0,0,0,1.2,1.2h3.6a1.116,1.116,0,0,0,.21-.042Z"/><rect class="cls-6" x="21" y="30.5" width="6" height="6" rx="1.2"/><rect class="cls-6" x="10.5" y="20.5" width="6" height="6" rx="1.2"/><rect class="cls-6" x="10.5" y="30.5" width="6" height="6" rx="1.2"/><rect class="cls-7" x="13" y="2" width="4" height="8" rx="2"/><rect class="cls-7" x="31" y="2" width="4" height="8" rx="2"/><circle class="cls-7" cx="35" cy="35" r="10"/><circle class="cls-1" cx="35" cy="35" r="8"/><path class="cls-7" d="M38,36H35a1,1,0,0,1-1-1V30a1,1,0,0,1,2,0v4h2a1,1,0,0,1,0,2Z"/></g></g></svg>